<svg width="206" height="205" viewBox="0 0 206 205" fill="none" xmlns="http://www.w3.org/2000/svg">
<path d="M59.3005 14.3211L41.5027 25.6421L35.1463 31.3026L28.1543 38.2211L22.4335 45.7684L15.4415 53.9447L9.72074 67.7816L5.90691 81.6184L4 97.971L5.90691 114.953L9.72074 133.192L15.4415 147.658L22.4335 156.463L30.6968 167.784L38.3245 176.589L47.859 182.25L59.3005 188.539L68.8351 194.2L79.0053 197.345L91.0824 201.118H106.973L124.136 200.489L143.205 194.2L158.46 186.024L174.351 172.187L185.157 160.237L194.056 145.142L197.87 135.708L202.319 125.645V113.066V101.745V90.4237V77.8447L194.056 59.6053L187.699 48.9132L180.707 38.2211L167.359 25.6421L158.46 20.6105L148.29 13.0632L136.213 8.66053L108.245 3H96.8032L84.0904 5.51579L72.6489 8.66053L59.3005 14.3211Z" stroke="white" stroke-width="6" stroke-linecap="round"/>
</svg>
